<mxfile host="Electron" modified="2024-04-05T03:41:25.659Z" agent="Mozilla/5.0 (Windows NT 10.0; Win64; x64) AppleWebKit/537.36 (KHTML, like Gecko) draw.io/22.1.18 Chrome/120.0.6099.199 Electron/28.1.2 Safari/537.36" etag="aWu2OYz8R7VWsTmKcgFu" version="22.1.18" type="device" pages="2">
  <diagram id="UlBzlETUiNTbLO7OTkW8" name="Diagrama de clases">
    <mxGraphModel dx="1354" dy="664" grid="1" gridSize="10" guides="1" tooltips="1" connect="1" arrows="1" fold="1" page="1" pageScale="1" pageWidth="827" pageHeight="1169" math="0" shadow="0">
      <root>
        <mxCell id="0" />
        <mxCell id="1" parent="0" />
        <mxCell id="cAKgu9Q-enze0ztzITY4-9" style="edgeStyle=orthogonalEdgeStyle;rounded=0;orthogonalLoop=1;jettySize=auto;html=1;" edge="1" parent="1" source="xKxBlXlDXREWC6I9kZaj-2" target="cAKgu9Q-enze0ztzITY4-1">
          <mxGeometry relative="1" as="geometry" />
        </mxCell>
        <mxCell id="cAKgu9Q-enze0ztzITY4-10" style="edgeStyle=orthogonalEdgeStyle;rounded=0;orthogonalLoop=1;jettySize=auto;html=1;" edge="1" parent="1" source="xKxBlXlDXREWC6I9kZaj-2" target="cAKgu9Q-enze0ztzITY4-5">
          <mxGeometry relative="1" as="geometry" />
        </mxCell>
        <mxCell id="cAKgu9Q-enze0ztzITY4-11" style="edgeStyle=orthogonalEdgeStyle;rounded=0;orthogonalLoop=1;jettySize=auto;html=1;entryX=0;entryY=0.5;entryDx=0;entryDy=0;" edge="1" parent="1" source="xKxBlXlDXREWC6I9kZaj-2" target="cAKgu9Q-enze0ztzITY4-4">
          <mxGeometry relative="1" as="geometry" />
        </mxCell>
        <mxCell id="xKxBlXlDXREWC6I9kZaj-2" value="&lt;p style=&quot;margin:0px;margin-top:4px;text-align:center;&quot;&gt;&lt;b&gt;Consola&lt;/b&gt;&lt;/p&gt;&lt;hr size=&quot;1&quot;&gt;&lt;p style=&quot;margin:0px;margin-left:4px;&quot;&gt;- op: str&lt;/p&gt;&lt;p style=&quot;margin:0px;margin-left:4px;&quot;&gt;- literales: List[str]&lt;/p&gt;&lt;hr size=&quot;1&quot;&gt;&lt;p style=&quot;border-color: var(--border-color); margin: 0px 0px 0px 4px;&quot;&gt;+ mostrarOpciones():&lt;/p&gt;&lt;p style=&quot;border-color: var(--border-color); margin: 0px 0px 0px 4px;&quot;&gt;&lt;br&gt;&lt;/p&gt;" style="verticalAlign=top;align=left;overflow=fill;fontSize=12;fontFamily=Helvetica;html=1;whiteSpace=wrap;" parent="1" vertex="1">
          <mxGeometry x="190" y="190" width="170" height="170" as="geometry" />
        </mxCell>
        <mxCell id="cAKgu9Q-enze0ztzITY4-12" style="edgeStyle=orthogonalEdgeStyle;rounded=0;orthogonalLoop=1;jettySize=auto;html=1;" edge="1" parent="1" source="cAKgu9Q-enze0ztzITY4-1" target="cAKgu9Q-enze0ztzITY4-2">
          <mxGeometry relative="1" as="geometry" />
        </mxCell>
        <mxCell id="cAKgu9Q-enze0ztzITY4-1" value="&lt;p style=&quot;margin:0px;margin-top:4px;text-align:center;&quot;&gt;&lt;b&gt;BaseDatos&lt;/b&gt;&lt;/p&gt;&lt;hr size=&quot;1&quot;&gt;&lt;p style=&quot;margin:0px;margin-left:4px;&quot;&gt;- nombreBD: String&lt;/p&gt;&lt;p style=&quot;margin:0px;margin-left:4px;&quot;&gt;- colecciones: dict&lt;/p&gt;&lt;hr size=&quot;1&quot;&gt;&lt;p style=&quot;border-color: var(--border-color); margin: 0px 0px 0px 4px;&quot;&gt;+ init()&lt;/p&gt;&lt;p style=&quot;border-color: var(--border-color); margin: 0px 0px 0px 4px;&quot;&gt;+ crearColeccion(nombreColeccion:str): String&lt;/p&gt;&lt;p style=&quot;border-color: var(--border-color); margin: 0px 0px 0px 4px;&quot;&gt;+ eliminarColeccion(nombreColeccion:str): String&lt;/p&gt;&lt;p style=&quot;border-color: var(--border-color); margin: 0px 0px 0px 4px;&quot;&gt;+ consultarColeccion(nombreColeccion:str): dict&lt;/p&gt;" style="verticalAlign=top;align=left;overflow=fill;fontSize=12;fontFamily=Helvetica;html=1;whiteSpace=wrap;" vertex="1" parent="1">
          <mxGeometry x="470" y="70" width="290" height="140" as="geometry" />
        </mxCell>
        <mxCell id="cAKgu9Q-enze0ztzITY4-13" style="edgeStyle=orthogonalEdgeStyle;rounded=0;orthogonalLoop=1;jettySize=auto;html=1;" edge="1" parent="1" source="cAKgu9Q-enze0ztzITY4-2" target="cAKgu9Q-enze0ztzITY4-3">
          <mxGeometry relative="1" as="geometry" />
        </mxCell>
        <mxCell id="cAKgu9Q-enze0ztzITY4-2" value="&lt;p style=&quot;margin:0px;margin-top:4px;text-align:center;&quot;&gt;&lt;b&gt;Coleccion&lt;/b&gt;&lt;/p&gt;&lt;hr size=&quot;1&quot;&gt;&lt;p style=&quot;margin:0px;margin-left:4px;&quot;&gt;- nombreColeccion: String&lt;/p&gt;&lt;p style=&quot;margin:0px;margin-left:4px;&quot;&gt;- registros: List[]&lt;/p&gt;&lt;hr size=&quot;1&quot;&gt;&lt;p style=&quot;border-color: var(--border-color); margin: 0px 0px 0px 4px;&quot;&gt;+ agregarRegistro(nombreColeccion:str): String&lt;/p&gt;&lt;p style=&quot;border-color: var(--border-color); margin: 0px 0px 0px 4px;&quot;&gt;+ visualizarRegistros(nombreColeccion:str): String&lt;/p&gt;&lt;p style=&quot;border-color: var(--border-color); margin: 0px 0px 0px 4px;&quot;&gt;+ visualizarRegistro(nombreColeccion:str, IdRegistro): String&lt;/p&gt;&lt;p style=&quot;border-color: var(--border-color); margin: 0px 0px 0px 4px;&quot;&gt;+ editarRegistro(nombreColeccion:str, IdRegistro): String&lt;/p&gt;&lt;p style=&quot;border-color: var(--border-color); margin: 0px 0px 0px 4px;&quot;&gt;+ eliminarRegistro(nombreColeccion:str, IdRegistro): String&lt;/p&gt;" style="verticalAlign=top;align=left;overflow=fill;fontSize=12;fontFamily=Helvetica;html=1;whiteSpace=wrap;" vertex="1" parent="1">
          <mxGeometry x="800" y="50" width="340" height="160" as="geometry" />
        </mxCell>
        <mxCell id="cAKgu9Q-enze0ztzITY4-3" value="&lt;p style=&quot;margin:0px;margin-top:4px;text-align:center;&quot;&gt;&lt;b&gt;Registro&lt;/b&gt;&lt;/p&gt;&lt;hr size=&quot;1&quot;&gt;&lt;p style=&quot;margin:0px;margin-left:4px;&quot;&gt;- atributos: dict&lt;/p&gt;&lt;hr size=&quot;1&quot;&gt;&lt;p style=&quot;margin:0px;margin-left:4px;&quot;&gt;+ init(atributos: dict): void&lt;/p&gt;&lt;p style=&quot;margin:0px;margin-left:4px;&quot;&gt;+ obtenerAtributo(nombreAtributo:str): void&lt;/p&gt;&lt;p style=&quot;margin:0px;margin-left:4px;&quot;&gt;+ establecerAtributo(nombreAtributo:str, valor:any): void&lt;/p&gt;&lt;p style=&quot;margin:0px;margin-left:4px;&quot;&gt;&lt;br&gt;&lt;/p&gt;" style="verticalAlign=top;align=left;overflow=fill;fontSize=12;fontFamily=Helvetica;html=1;whiteSpace=wrap;" vertex="1" parent="1">
          <mxGeometry x="810" y="252.5" width="320" height="120" as="geometry" />
        </mxCell>
        <mxCell id="cAKgu9Q-enze0ztzITY4-4" value="&lt;p style=&quot;margin:0px;margin-top:4px;text-align:center;&quot;&gt;&lt;b&gt;Transaccion&lt;/b&gt;&lt;/p&gt;&lt;hr size=&quot;1&quot;&gt;&lt;p style=&quot;margin:0px;margin-left:4px;&quot;&gt;- operaciones: List[str]&lt;/p&gt;&lt;p style=&quot;margin:0px;margin-left:4px;&quot;&gt;- resultado: str&lt;/p&gt;&lt;hr size=&quot;1&quot;&gt;&lt;p style=&quot;margin:0px;margin-left:4px;&quot;&gt;+ init()&lt;/p&gt;&lt;p style=&quot;margin:0px;margin-left:4px;&quot;&gt;+ agregarOperacion(operacion:str):&lt;/p&gt;&lt;p style=&quot;margin:0px;margin-left:4px;&quot;&gt;+ obtenerOperaciones(): List[str]&lt;/p&gt;&lt;p style=&quot;margin:0px;margin-left:4px;&quot;&gt;+ establecerResultado(resultado:str):&lt;/p&gt;" style="verticalAlign=top;align=left;overflow=fill;fontSize=12;fontFamily=Helvetica;html=1;whiteSpace=wrap;" vertex="1" parent="1">
          <mxGeometry x="470" y="420" width="250" height="150" as="geometry" />
        </mxCell>
        <mxCell id="cAKgu9Q-enze0ztzITY4-5" value="&lt;p style=&quot;margin:0px;margin-top:4px;text-align:center;&quot;&gt;&lt;b&gt;Consulta&lt;/b&gt;&lt;/p&gt;&lt;hr size=&quot;1&quot;&gt;&lt;p style=&quot;margin:0px;margin-left:4px;&quot;&gt;- filtro: str&lt;br&gt;&lt;/p&gt;&lt;p style=&quot;margin:0px;margin-left:4px;&quot;&gt;- proyeccion: List[str]&lt;/p&gt;&lt;p style=&quot;margin:0px;margin-left:4px;&quot;&gt;- ordenamiento: str&lt;/p&gt;&lt;hr size=&quot;1&quot;&gt;&lt;p style=&quot;margin:0px;margin-left:4px;&quot;&gt;+ init():&lt;/p&gt;&lt;p style=&quot;margin:0px;margin-left:4px;&quot;&gt;+ obtenerFiltro(): str&lt;/p&gt;&lt;p style=&quot;margin:0px;margin-left:4px;&quot;&gt;+ obtenerProyeccion(): List[str]&lt;/p&gt;&lt;p style=&quot;margin:0px;margin-left:4px;&quot;&gt;+ obtenerOrdenamiento(): str&lt;/p&gt;" style="verticalAlign=top;align=left;overflow=fill;fontSize=12;fontFamily=Helvetica;html=1;whiteSpace=wrap;" vertex="1" parent="1">
          <mxGeometry x="470" y="230" width="200" height="165" as="geometry" />
        </mxCell>
        <mxCell id="cAKgu9Q-enze0ztzITY4-8" style="edgeStyle=orthogonalEdgeStyle;rounded=0;orthogonalLoop=1;jettySize=auto;html=1;" edge="1" parent="1" source="cAKgu9Q-enze0ztzITY4-7" target="xKxBlXlDXREWC6I9kZaj-2">
          <mxGeometry relative="1" as="geometry" />
        </mxCell>
        <mxCell id="cAKgu9Q-enze0ztzITY4-7" value="&lt;p style=&quot;margin:0px;margin-top:4px;text-align:center;&quot;&gt;&lt;b&gt;Main&lt;/b&gt;&lt;/p&gt;&lt;hr size=&quot;1&quot;&gt;&lt;p style=&quot;margin:0px;margin-left:4px;&quot;&gt;-&amp;nbsp;&lt;/p&gt;&lt;hr size=&quot;1&quot;&gt;&lt;p style=&quot;border-color: var(--border-color); margin: 0px 0px 0px 4px;&quot;&gt;+ inicializarConsola():&lt;/p&gt;" style="verticalAlign=top;align=left;overflow=fill;fontSize=12;fontFamily=Helvetica;html=1;whiteSpace=wrap;" vertex="1" parent="1">
          <mxGeometry x="190" y="410" width="170" height="90" as="geometry" />
        </mxCell>
        <mxCell id="cAKgu9Q-enze0ztzITY4-15" style="edgeStyle=orthogonalEdgeStyle;rounded=0;orthogonalLoop=1;jettySize=auto;html=1;" edge="1" parent="1" source="cAKgu9Q-enze0ztzITY4-14" target="xKxBlXlDXREWC6I9kZaj-2">
          <mxGeometry relative="1" as="geometry" />
        </mxCell>
        <mxCell id="cAKgu9Q-enze0ztzITY4-14" value="&lt;p style=&quot;margin:0px;margin-top:4px;text-align:center;&quot;&gt;&lt;b&gt;Utilidades&lt;/b&gt;&lt;/p&gt;&lt;hr size=&quot;1&quot;&gt;&lt;p style=&quot;margin:0px;margin-left:4px;&quot;&gt;-&amp;nbsp;&lt;/p&gt;&lt;hr size=&quot;1&quot;&gt;&lt;p style=&quot;border-color: var(--border-color); margin: 0px 0px 0px 4px;&quot;&gt;+ titulo(texto:str):&amp;nbsp;&lt;/p&gt;&lt;p style=&quot;border-color: var(--border-color); margin: 0px 0px 0px 4px;&quot;&gt;+ indice(opciones:List[str]):&lt;/p&gt;&lt;p style=&quot;border-color: var(--border-color); margin: 0px 0px 0px 4px;&quot;&gt;+ leerEntrada(op:str): str&lt;br&gt;&lt;/p&gt;" style="verticalAlign=top;align=left;overflow=fill;fontSize=12;fontFamily=Helvetica;html=1;whiteSpace=wrap;" vertex="1" parent="1">
          <mxGeometry x="190" y="10" width="170" height="140" as="geometry" />
        </mxCell>
      </root>
    </mxGraphModel>
  </diagram>
  <diagram name="RF01" id="5hISqHQNSowjEhYU60bK">
    <mxGraphModel dx="1354" dy="664" grid="1" gridSize="10" guides="1" tooltips="1" connect="1" arrows="1" fold="1" page="1" pageScale="1" pageWidth="827" pageHeight="1169" math="0" shadow="0">
      <root>
        <mxCell id="0" />
        <mxCell id="1" parent="0" />
        <mxCell id="KD4srC0kXVOpmhAhG9xs-1" value="RF01: Soporte para operaciones CRUD  &#xa;Descripción: EquinoxDB debe permitir a los usuarios realizar operaciones de Crear, Leer, Actualizar y Eliminar datos de manera eficiente y confiable.  &#xa;Subrequerimientos:&#xa;&#xa;&#xa;1. La capacidad de agregar nuevos registros a la base de datos.&#xa;2. La habilidad para recuperar información específica de la base de datos.&#xa;3. La posibilidad de actualizar registros existentes en la base de datos.&#xa;4. La capacidad de eliminar registros de la base de datos." style="text;whiteSpace=wrap;" parent="1" vertex="1">
          <mxGeometry x="50" y="140" width="450" height="170" as="geometry" />
        </mxCell>
        <mxCell id="KD4srC0kXVOpmhAhG9xs-2" value="Consola" style="shape=umlLifeline;perimeter=lifelinePerimeter;whiteSpace=wrap;html=1;container=1;dropTarget=0;collapsible=0;recursiveResize=0;outlineConnect=0;portConstraint=eastwest;newEdgeStyle={&quot;curved&quot;:0,&quot;rounded&quot;:0};" parent="1" vertex="1">
          <mxGeometry x="170" y="360" width="100" height="300" as="geometry" />
        </mxCell>
        <mxCell id="KD4srC0kXVOpmhAhG9xs-6" value="" style="html=1;points=[[0,0,0,0,5],[0,1,0,0,-5],[1,0,0,0,5],[1,1,0,0,-5]];perimeter=orthogonalPerimeter;outlineConnect=0;targetShapes=umlLifeline;portConstraint=eastwest;newEdgeStyle={&quot;curved&quot;:0,&quot;rounded&quot;:0};" parent="KD4srC0kXVOpmhAhG9xs-2" vertex="1">
          <mxGeometry x="45" y="70" width="10" height="80" as="geometry" />
        </mxCell>
        <mxCell id="KD4srC0kXVOpmhAhG9xs-3" value="" style="shape=umlLifeline;perimeter=lifelinePerimeter;whiteSpace=wrap;html=1;container=1;dropTarget=0;collapsible=0;recursiveResize=0;outlineConnect=0;portConstraint=eastwest;newEdgeStyle={&quot;curved&quot;:0,&quot;rounded&quot;:0};participant=umlActor;" parent="1" vertex="1">
          <mxGeometry x="90" y="360" width="20" height="300" as="geometry" />
        </mxCell>
        <mxCell id="KD4srC0kXVOpmhAhG9xs-5" value="" style="html=1;points=[[0,0,0,0,5],[0,1,0,0,-5],[1,0,0,0,5],[1,1,0,0,-5]];perimeter=orthogonalPerimeter;outlineConnect=0;targetShapes=umlLifeline;portConstraint=eastwest;newEdgeStyle={&quot;curved&quot;:0,&quot;rounded&quot;:0};" parent="KD4srC0kXVOpmhAhG9xs-3" vertex="1">
          <mxGeometry x="5" y="70" width="10" height="80" as="geometry" />
        </mxCell>
        <mxCell id="KD4srC0kXVOpmhAhG9xs-4" value="Usuario" style="text;html=1;align=center;verticalAlign=middle;resizable=0;points=[];autosize=1;strokeColor=none;fillColor=none;" parent="1" vertex="1">
          <mxGeometry x="70" y="320" width="60" height="30" as="geometry" />
        </mxCell>
        <mxCell id="KD4srC0kXVOpmhAhG9xs-7" value="Crea una colección" style="html=1;verticalAlign=bottom;endArrow=block;curved=0;rounded=0;entryX=0;entryY=0;entryDx=0;entryDy=5;exitX=1;exitY=0;exitDx=0;exitDy=5;exitPerimeter=0;" parent="1" source="KD4srC0kXVOpmhAhG9xs-5" target="KD4srC0kXVOpmhAhG9xs-6" edge="1">
          <mxGeometry relative="1" as="geometry">
            <mxPoint x="150" y="425" as="sourcePoint" />
          </mxGeometry>
        </mxCell>
        <mxCell id="KD4srC0kXVOpmhAhG9xs-8" value="Mensaje de &lt;br&gt;confirmación" style="html=1;verticalAlign=bottom;endArrow=open;dashed=1;endSize=8;curved=0;rounded=0;exitX=0;exitY=1;exitDx=0;exitDy=-5;entryX=1;entryY=1;entryDx=0;entryDy=-5;entryPerimeter=0;exitPerimeter=0;" parent="1" source="KD4srC0kXVOpmhAhG9xs-6" target="KD4srC0kXVOpmhAhG9xs-5" edge="1">
          <mxGeometry relative="1" as="geometry">
            <mxPoint x="120" y="480" as="targetPoint" />
            <mxPoint x="255" y="490" as="sourcePoint" />
          </mxGeometry>
        </mxCell>
        <mxCell id="KD4srC0kXVOpmhAhG9xs-9" value="Controlador" style="shape=umlLifeline;perimeter=lifelinePerimeter;whiteSpace=wrap;html=1;container=1;dropTarget=0;collapsible=0;recursiveResize=0;outlineConnect=0;portConstraint=eastwest;newEdgeStyle={&quot;curved&quot;:0,&quot;rounded&quot;:0};" parent="1" vertex="1">
          <mxGeometry x="314" y="360" width="100" height="300" as="geometry" />
        </mxCell>
        <mxCell id="KD4srC0kXVOpmhAhG9xs-10" value="" style="html=1;points=[[0,0,0,0,5],[0,1,0,0,-5],[1,0,0,0,5],[1,1,0,0,-5]];perimeter=orthogonalPerimeter;outlineConnect=0;targetShapes=umlLifeline;portConstraint=eastwest;newEdgeStyle={&quot;curved&quot;:0,&quot;rounded&quot;:0};" parent="KD4srC0kXVOpmhAhG9xs-9" vertex="1">
          <mxGeometry x="45" y="70" width="10" height="80" as="geometry" />
        </mxCell>
        <mxCell id="KD4srC0kXVOpmhAhG9xs-11" value="Gestor de archivos" style="shape=umlLifeline;perimeter=lifelinePerimeter;whiteSpace=wrap;html=1;container=1;dropTarget=0;collapsible=0;recursiveResize=0;outlineConnect=0;portConstraint=eastwest;newEdgeStyle={&quot;curved&quot;:0,&quot;rounded&quot;:0};" parent="1" vertex="1">
          <mxGeometry x="450" y="360" width="100" height="300" as="geometry" />
        </mxCell>
        <mxCell id="KD4srC0kXVOpmhAhG9xs-12" value="" style="html=1;points=[[0,0,0,0,5],[0,1,0,0,-5],[1,0,0,0,5],[1,1,0,0,-5]];perimeter=orthogonalPerimeter;outlineConnect=0;targetShapes=umlLifeline;portConstraint=eastwest;newEdgeStyle={&quot;curved&quot;:0,&quot;rounded&quot;:0};" parent="KD4srC0kXVOpmhAhG9xs-11" vertex="1">
          <mxGeometry x="45" y="70" width="10" height="80" as="geometry" />
        </mxCell>
        <mxCell id="KD4srC0kXVOpmhAhG9xs-13" value="Archivo JSON" style="shape=umlLifeline;perimeter=lifelinePerimeter;whiteSpace=wrap;html=1;container=1;dropTarget=0;collapsible=0;recursiveResize=0;outlineConnect=0;portConstraint=eastwest;newEdgeStyle={&quot;curved&quot;:0,&quot;rounded&quot;:0};" parent="1" vertex="1">
          <mxGeometry x="590" y="360" width="100" height="300" as="geometry" />
        </mxCell>
        <mxCell id="KD4srC0kXVOpmhAhG9xs-14" value="" style="html=1;points=[[0,0,0,0,5],[0,1,0,0,-5],[1,0,0,0,5],[1,1,0,0,-5]];perimeter=orthogonalPerimeter;outlineConnect=0;targetShapes=umlLifeline;portConstraint=eastwest;newEdgeStyle={&quot;curved&quot;:0,&quot;rounded&quot;:0};" parent="KD4srC0kXVOpmhAhG9xs-13" vertex="1">
          <mxGeometry x="45" y="70" width="10" height="80" as="geometry" />
        </mxCell>
        <mxCell id="KD4srC0kXVOpmhAhG9xs-15" value="crearColeccion()" style="html=1;verticalAlign=bottom;endArrow=block;curved=0;rounded=0;entryX=0;entryY=0;entryDx=0;entryDy=5;exitX=1;exitY=0;exitDx=0;exitDy=5;exitPerimeter=0;entryPerimeter=0;" parent="1" source="KD4srC0kXVOpmhAhG9xs-6" target="KD4srC0kXVOpmhAhG9xs-10" edge="1">
          <mxGeometry relative="1" as="geometry">
            <mxPoint x="230" y="440" as="sourcePoint" />
            <mxPoint x="340" y="440" as="targetPoint" />
          </mxGeometry>
        </mxCell>
        <mxCell id="KD4srC0kXVOpmhAhG9xs-16" value="crearArchivo()" style="html=1;verticalAlign=bottom;endArrow=block;curved=0;rounded=0;entryX=0;entryY=0;entryDx=0;entryDy=5;exitX=1;exitY=0;exitDx=0;exitDy=5;exitPerimeter=0;entryPerimeter=0;" parent="1" source="KD4srC0kXVOpmhAhG9xs-10" target="KD4srC0kXVOpmhAhG9xs-12" edge="1">
          <mxGeometry relative="1" as="geometry">
            <mxPoint x="366" y="440" as="sourcePoint" />
            <mxPoint x="500" y="440" as="targetPoint" />
          </mxGeometry>
        </mxCell>
        <mxCell id="KD4srC0kXVOpmhAhG9xs-17" value="darle un nombre &lt;br&gt;al archivo" style="html=1;verticalAlign=bottom;endArrow=block;curved=0;rounded=0;entryX=0;entryY=0;entryDx=0;entryDy=5;entryPerimeter=0;" parent="1" source="KD4srC0kXVOpmhAhG9xs-12" target="KD4srC0kXVOpmhAhG9xs-14" edge="1">
          <mxGeometry relative="1" as="geometry">
            <mxPoint x="510" y="440" as="sourcePoint" />
            <mxPoint x="636" y="440" as="targetPoint" />
          </mxGeometry>
        </mxCell>
      </root>
    </mxGraphModel>
  </diagram>
</mxfile>
